<?xml version="1.0" encoding="UTF-8" standalone="no"?>
<svg
   xmlns:dc="http://purl.org/dc/elements/1.1/"
   xmlns:cc="http://creativecommons.org/ns#"
   xmlns:rdf="http://www.w3.org/1999/02/22-rdf-syntax-ns#"
   xmlns:svg="http://www.w3.org/2000/svg"
   xmlns="http://www.w3.org/2000/svg"
   xmlns:sodipodi="http://sodipodi.sourceforge.net/DTD/sodipodi-0.dtd"
   xmlns:inkscape="http://www.inkscape.org/namespaces/inkscape"
   version="1.1"
   x="0px"
   y="0px"
   viewBox="0 0 100 125"
   xml:space="preserve"
   id="svg3122"
   inkscape:version="0.48.4 r9939"
   width="100%"
   height="100%"
   sodipodi:docname="happy.svg"><metadata
     id="metadata3134"><rdf:RDF><cc:Work
         rdf:about=""><dc:format>image/svg+xml</dc:format><dc:type
           rdf:resource="http://purl.org/dc/dcmitype/StillImage" /></cc:Work></rdf:RDF></metadata><defs
     id="defs3132" /><sodipodi:namedview
     pagecolor="#ffffff"
     bordercolor="#666666"
     borderopacity="1"
     objecttolerance="10"
     gridtolerance="10"
     guidetolerance="10"
     inkscape:pageopacity="0"
     inkscape:pageshadow="2"
     inkscape:window-width="640"
     inkscape:window-height="480"
     id="namedview3130"
     showgrid="false"
     inkscape:zoom="1.888"
     inkscape:cx="50"
     inkscape:cy="62.5"
     inkscape:window-x="65"
     inkscape:window-y="24"
     inkscape:window-maximized="0"
     inkscape:current-layer="svg3122" /><path
     d="M50,94C25.7,94,6,74.3,6,50S25.7,6,50,6s44,19.7,44,44S74.3,94,50,94z M50,14c-19.9,0-36,16.1-36,36  s16.1,36,36,36s36-16.1,36-36S69.9,14,50,14z M50,78c12.7,0,23.4-8.4,26.8-20h-8.5C65.2,65.1,58.2,70,50,70s-15.2-4.9-18.3-12h-8.5  C26.6,69.5,37.3,78,50,78z M36,34c-3.3,0-6,2.7-6,6s2.7,6,6,6s6-2.7,6-6S39.3,34,36,34z M64,34c-3.3,0-6,2.7-6,6s2.7,6,6,6  c3.3,0,6-2.7,6-6S67.3,34,64,34z"
     id="path3124" /></svg>