<?xml version="1.0" encoding="UTF-8" standalone="no"?>
<svg
   xmlns:dc="http://purl.org/dc/elements/1.1/"
   xmlns:cc="http://creativecommons.org/ns#"
   xmlns:rdf="http://www.w3.org/1999/02/22-rdf-syntax-ns#"
   xmlns:svg="http://www.w3.org/2000/svg"
   xmlns="http://www.w3.org/2000/svg"
   xmlns:sodipodi="http://sodipodi.sourceforge.net/DTD/sodipodi-0.dtd"
   xmlns:inkscape="http://www.inkscape.org/namespaces/inkscape"
   version="1.1"
   x="0px"
   y="0px"
   viewBox="0 0 100 125"
   xml:space="preserve"
   id="svg3174"
   inkscape:version="0.48.4 r9939"
   width="100%"
   height="100%"
   sodipodi:docname="sad.svg"><metadata
     id="metadata3186"><rdf:RDF><cc:Work
         rdf:about=""><dc:format>image/svg+xml</dc:format><dc:type
           rdf:resource="http://purl.org/dc/dcmitype/StillImage" /></cc:Work></rdf:RDF></metadata><defs
     id="defs3184" /><sodipodi:namedview
     pagecolor="#ffffff"
     bordercolor="#666666"
     borderopacity="1"
     objecttolerance="10"
     gridtolerance="10"
     guidetolerance="10"
     inkscape:pageopacity="0"
     inkscape:pageshadow="2"
     inkscape:window-width="640"
     inkscape:window-height="480"
     id="namedview3182"
     showgrid="false"
     inkscape:zoom="1.888"
     inkscape:cx="50"
     inkscape:cy="62.5"
     inkscape:window-x="65"
     inkscape:window-y="24"
     inkscape:window-maximized="0"
     inkscape:current-layer="svg3174" /><path
     d="M50,94C25.7,94,6,74.3,6,50S25.7,6,50,6s44,19.7,44,44S74.3,94,50,94z M50,14c-19.9,0-36,16.1-36,36s16.1,36,36,36  s36-16.1,36-36S69.9,14,50,14z M36,34c-3.3,0-6,2.7-6,6s2.7,6,6,6s6-2.7,6-6S39.3,34,36,34z M64,34c-3.3,0-6,2.7-6,6s2.7,6,6,6  s6-2.7,6-6S67.3,34,64,34z M50,54c-11.9,0-21.7,8.7-23.7,20h8.2c1.8-6.9,8-12,15.5-12s13.7,5.1,15.5,12h8.2C71.7,62.7,61.9,54,50,54  z"
     id="path3176" /></svg>